<svg width="72" height="72" viewBox="0 0 72 72" fill="none" xmlns="http://www.w3.org/2000/svg">
<g filter="url(#filter0_dd_879_18501)">
<rect x="7" y="7" width="52" height="52" rx="26" fill="url(#paint0_linear_879_18501)"/>
<rect x="7.5" y="7.5" width="51" height="51" rx="25.5" stroke="white"/>
</g>
<mask id="mask0_879_18501" style="mask-type:alpha" maskUnits="userSpaceOnUse" x="21" y="21" width="24" height="24">
<rect x="21" y="21" width="24" height="24" fill="#D9D9D9"/>
</mask>
<g mask="url(#mask0_879_18501)">
<path d="M27 34.25H31.75V39C31.75 39.3463 31.8699 39.6484 32.1107 39.8893C32.3516 40.1301 32.6537 40.25 33 40.25C33.3463 40.25 33.6484 40.1301 33.8893 39.8893C34.1301 39.6484 34.25 39.3463 34.25 39V34.25H39C39.3463 34.25 39.6484 34.1301 39.8893 33.8893C40.1301 33.6484 40.25 33.3463 40.25 33C40.25 32.6537 40.1301 32.3516 39.8893 32.1107C39.6484 31.8699 39.3463 31.75 39 31.75H34.25V27C34.25 26.6537 34.1301 26.3516 33.8893 26.1107C33.6484 25.8699 33.3463 25.75 33 25.75C32.6537 25.75 32.3516 25.8699 32.1107 26.1107C31.8699 26.3516 31.75 26.6537 31.75 27V31.75H27C26.6537 31.75 26.3516 31.8699 26.1107 32.1107C25.8699 32.3516 25.75 32.6537 25.75 33C25.75 33.3463 25.8699 33.6484 26.1107 33.8893C26.3516 34.1301 26.6537 34.25 27 34.25Z" fill="#FFA519" stroke="#FFA519" stroke-width="0.5"/>
</g>
<defs>
<filter id="filter0_dd_879_18501" x="0" y="0" width="72" height="72" filterUnits="userSpaceOnUse" color-interpolation-filters="sRGB">
<feFlood flood-opacity="0" result="BackgroundImageFix"/>
<feColorMatrix in="SourceAlpha" type="matrix" values="0 0 0 0 0 0 0 0 0 0 0 0 0 0 0 0 0 0 127 0" result="hardAlpha"/>
<feOffset dx="2" dy="2"/>
<feGaussianBlur stdDeviation="3"/>
<feComposite in2="hardAlpha" operator="out"/>
<feColorMatrix type="matrix" values="0 0 0 0 0 0 0 0 0 0 0 0 0 0 0 0 0 0 0.02 0"/>
<feBlend mode="normal" in2="BackgroundImageFix" result="effect1_dropShadow_879_18501"/>
<feColorMatrix in="SourceAlpha" type="matrix" values="0 0 0 0 0 0 0 0 0 0 0 0 0 0 0 0 0 0 127 0" result="hardAlpha"/>
<feOffset dx="3" dy="3"/>
<feGaussianBlur stdDeviation="5"/>
<feComposite in2="hardAlpha" operator="out"/>
<feColorMatrix type="matrix" values="0 0 0 0 0 0 0 0 0 0 0 0 0 0 0 0 0 0 0.12 0"/>
<feBlend mode="normal" in2="effect1_dropShadow_879_18501" result="effect2_dropShadow_879_18501"/>
<feBlend mode="normal" in="SourceGraphic" in2="effect2_dropShadow_879_18501" result="shape"/>
</filter>
<linearGradient id="paint0_linear_879_18501" x1="7" y1="7" x2="59" y2="59" gradientUnits="userSpaceOnUse">
<stop stop-color="#F2F2F2"/>
<stop offset="1" stop-color="white"/>
</linearGradient>
</defs>
</svg>
